<svg fill="currentColor" xmlns="http://www.w3.org/2000/svg">
 <defs>
                        <clipPath
                            id="envelope-clip"
                            clipPathUnits="objectBoundingBox"
                            clipPathUnitss="userSpaceOnUse"
                        >
                        <path d="M.9 0H.1C.045 0 0 .0563 0 .125V.875C0 .9437.045 1 .1 1H.9C.955 1 1 .9437 1 .875V.125C1 .0563.955 0 .9 0ZM.88.2656.553.5212C.5205.5469.4795.5469.447.5212L.12.2656C.115.2621.1106.2574.1071.2517.1036.246.1011.2394.0996.2325.0982.2255.0979.2182.0988.2111.0997.204.1017.1972.1048.1911.1078.185.1118.1798.1165.1757.1213.1716.1266.1687.1322.1673.1379.1658.1437.1658.1493.1672.1549.1687.1603.1715.165.1756L.5.4375.835.1756C.8397.1715.8451.1687.8507.1672.8563.1658.8621.1658.8678.1673.8734.1687.8787.1716.8835.1757.8882.1798.8922.185.8952.1911.8983.1972.9003.204.9012.2111.9021.2182.9018.2255.9004.2325.8989.2394.8964.246.8929.2517.8894.2574.885.2621.88.2656Z"/>
                        </clipPath>
    </defs>
</svg>
