<svg xmlns="http://www.w3.org/2000/svg">
 <defs>
                    <clipPath
                        id="phone-clip"
                        clipPathUnits="objectBoundingBox"
                        clipPathUnitss="userSpaceOnUse"
                    >
<path d="M.9024.6817.7612.6655C.7446.6636.7277.6654.7119.6709.6961.6764.6818.6854.67.6972L.5677.7995C.4098.7193.2815.591.2013.4331L.3041.3303C.328.3064.3397.273.3358.2391L.3197.099C.3165.0718.3035.0468.2831.0287.2627.0105.2364.0005.2091.0006H.1129C.05.0006-.0022.0528.0017.1156.0311.5905.4109.9697.8852.9991.948 1.003 1.0002.9508 1.0002.8879V.7917C1.0008.7356.9585.6883.9024.6817Z"/>
                    </clipPath>
 </defs>
</svg>
