<svg xmlns="http://www.w3.org/2000/svg">
                    <defs>
                        <clipPath
                            id="star-clip"
                            clipPathUnits="objectBoundingBox"
                            clipPathUnitss="userSpaceOnUse"
                        >
                            <path d="M.9352.3473.6562.304.5315.0343C.5281.0269.5225.0209.5156.0173.4982.0081.4771.0157.4685.0343L.3438.304.0648.3473C.0571.3485.0501.3523.0447.3582.0382.3653.0346.3749.0348.3849.0349.3949.0387.4044.0454.4113L.2472.6213.1995.9178C.1984.9247.1991.9318.2016.9383.2041.9448.2082.9504.2135.9545.2188.9586.2251.9611.2316.9616.2382.9621.2447.9606.2505.9573L.5.8173.7495.9573C.7563.9612.7642.9625.7718.9611.7909.9576.8038.9382.8005.9178L.7528.6213.9546.4113C.9601.4056.9637.3981.9648.3899.9678.3693.9544.3503.9352.3473Z" />
                        </clipPath>
                    </defs>
                </svg>
